<?xml version="1.0" encoding="UTF-8"?>
<svg xmlns="http://www.w3.org/2000/svg" version="1.1" viewBox="0 0 425.2 318.26">
  <!-- Generator: Adobe Illustrator 29.1.0, SVG Export Plug-In . SVG Version: 2.1.0 Build 142)  -->
  <defs>
    <style>
      .st0 {
        fill: #e74645;
      }

      .st1, .st2 {
        fill: #dadada;
      }

      .st3 {
        fill: #b2b2b2;
      }

      .st3, .st2, .st4, .st5 {
        mix-blend-mode: multiply;
      }

      .st6 {
        fill: #956000;
      }

      .st7 {
        fill: #fff;
      }

      .st8 {
        isolation: isolate;
      }

      .st9 {
        fill: #031d2d;
      }

      .st10 {
        fill: #163036;
      }

      .st11 {
        fill: #f8bb94;
      }

      .st12 {
        fill: #6ac9f2;
      }

      .st5, .st13 {
        fill: #c6c6c6;
      }

      .st14 {
        fill: #05191c;
      }

      .st15 {
        fill: #0d3953;
      }
    </style>
  </defs>
  <g class="st8">
    <g id="Capa_1">
      <rect class="st12" x="0" y="0" width="425.2" height="425.2"/>
      <g>
        <path class="st5" d="M341.58,245.88c0,10.72-57.75,19.41-128.98,19.41s-128.98-8.69-128.98-19.41,57.75-19.41,128.98-19.41,128.98,8.69,128.98,19.41Z"/>
        <g>
          <rect class="st14" x="97.84" y="233.48" width="233.54" height="10.86"/>
          <path class="st1" d="M129.54,71.2h167.05c5.27,0,9.55,4.28,9.55,9.55v115.07c0,5.27-4.28,9.56-9.56,9.56h-167.04c-5.27,0-9.56-4.28-9.56-9.56v-115.07c0-5.27,4.28-9.55,9.55-9.55Z"/>
          <path class="st10" d="M131.02,73h164.09c5.09,0,9.22,4.13,9.22,9.22v112.13c0,5.09-4.13,9.22-9.22,9.22h-164.09c-5.09,0-9.22-4.13-9.22-9.22v-112.13c0-5.09,4.13-9.22,9.22-9.22Z"/>
          <path class="st10" d="M103.59,236.29c-9.23,0-4.58-5.34-4.58-6.52l22.79-21.52c2.68-2.13,4.13-2.13,9.22-2.13h164.09c5.09,0,6.53.63,9.22,2.13l25.24,22.14c2.34,1.6,3.97,5.9-5.45,5.9H103.59Z"/>
          <polygon class="st1" points="128.03 209.25 299.25 209.25 315.17 222.63 114.06 222.63 128.03 209.25"/>
          <polygon class="st1" points="194.6 226.47 234.18 226.47 237.86 231.08 191.37 231.08 194.6 226.47"/>
          <rect class="st7" x="129.94" y="81.62" width="166.25" height="113.34"/>
          <polygon class="st13" points="129.94 81.62 129.94 194.96 296.19 194.96 129.94 81.62"/>
        </g>
        <g>
          <rect class="st11" x="204.79" y="150.7" width="16.56" height="9.85"/>
          <path class="st2" d="M215.27,159.23c-3.47-1.11-6.38-3.28-6.82-7.1-.06-.52,0-1,.14-1.43h-3.81v9.85h16.56v-1.24c-2.03.51-4.16.53-6.07-.08Z"/>
          <g>
            <path class="st11" d="M254.52,119.09c0,4.07-3.42,7.37-7.63,7.37s-7.63-3.3-7.63-7.37,3.42-7.37,7.63-7.37,7.63,3.3,7.63,7.37Z"/>
            <g class="st4">
              <path class="st1" d="M247.87,114.99s.18-.03.51-.02c.33.01.8.06,1.35.27.54.2,1.18.58,1.62,1.25.11.16.19.35.29.53.07.19.12.39.18.59l.06.61c0,.2-.02.4-.03.61-.03.38-.13.78-.24,1.15-.11.37-.29.72-.47,1.04-.38.64-.91,1.14-1.43,1.42-.25.16-.52.23-.74.3-.23.05-.43.09-.59.1-.33,0-.51,0-.51,0,0,0,.17-.07.47-.19.15-.06.31-.17.5-.26.17-.13.38-.24.56-.42.19-.16.37-.37.54-.6.17-.23.31-.49.45-.77.13-.28.23-.59.32-.9.09-.32.16-.63.17-.98l.04-.48-.03-.47c-.04-.15-.07-.29-.1-.44-.06-.13-.1-.28-.17-.4-.27-.51-.71-.9-1.13-1.19-.43-.28-.84-.46-1.14-.58-.29-.12-.47-.17-.47-.17Z"/>
            </g>
            <path class="st2" d="M248.85,119.45c0,.79-.55,1.43-1.24,1.43s-1.24-.64-1.24-1.43.55-1.43,1.24-1.43,1.24.64,1.24,1.43Z"/>
          </g>
          <g>
            <ellipse class="st11" cx="180.29" cy="119.09" rx="7.63" ry="7.37"/>
            <g class="st4">
              <path class="st1" d="M179.31,114.99s-.19-.03-.51-.02c-.33.01-.8.06-1.35.27-.54.2-1.18.58-1.62,1.25-.11.16-.19.35-.28.53-.07.19-.12.39-.18.59l-.06.61c0,.2.02.4.03.61.03.38.13.78.24,1.15.11.37.29.72.47,1.04.38.64.91,1.14,1.43,1.42.25.16.52.23.74.3.23.05.43.09.59.1.33,0,.52,0,.52,0,0,0-.17-.07-.47-.19-.15-.06-.31-.17-.5-.26-.17-.13-.38-.24-.56-.42-.19-.16-.37-.37-.54-.6-.17-.23-.31-.49-.45-.77-.13-.28-.23-.59-.33-.9-.09-.32-.16-.63-.17-.98l-.04-.48.03-.47c.04-.15.07-.29.1-.44.06-.13.1-.28.17-.4.27-.51.71-.9,1.13-1.19.43-.28.85-.46,1.14-.58.29-.12.47-.17.47-.17Z"/>
            </g>
            <path class="st2" d="M178.32,119.45c0,.79.55,1.43,1.24,1.43s1.24-.64,1.24-1.43-.55-1.43-1.24-1.43-1.24.64-1.24,1.43Z"/>
          </g>
          <path class="st11" d="M246.88,109.37c0,25.05-11.75,42.64-33.82,42.64s-33.82-17.59-33.82-42.64,12.2-45.35,34.27-45.35,33.37,20.31,33.37,45.35Z"/>
          <path class="st11" d="M205.12,160.13s-21.01,2.78-28.56,9.31c-7.69,6.66-9.97,12.41-12.74,25.57h98.49c-2.77-13.16-5.05-18.91-12.74-25.57-7.55-6.54-28.55-9.31-28.55-9.31h-15.89Z"/>
          <path class="st7" d="M198.77,161.22s-14.66,1.69-22.21,8.23c-7.69,6.66-9.97,12.41-12.74,25.57h98.49c-2.77-13.16-5.01-18.96-12.74-25.57-6.38-5.45-20.72-7.93-20.72-7.93l-7.83-1.39h-15.89l-6.35,1.08Z"/>
          <g>
            <path class="st0" d="M209.13,172.93s.07-.12.28-.28c-.09.09-.18.18-.28.28l-2.71,22.09h13.28l-2.71-22.09,1.83-7.59c.67-1.14.87-2.45.18-3.6-.63-1.04-1.5-1.58-2.48-1.85-1.55-.43-3.39-.18-5.05-.18s-2.82.15-3.9,1.44c-1.09,1.3-1.16,2.69-.28,4.18l1.83,7.59Z"/>
            <path class="st5" d="M208.83,171.75s5.51-2.57,8.15,1.18c0,0-3.71-2.11-7.87,0l-.29-1.18Z"/>
          </g>
          <path class="st15" d="M198.77,161.22s-14.66,1.69-22.21,8.23c-7.69,6.66-9.97,12.41-12.74,25.57h98.49c-2.77-13.16-5.01-18.96-12.74-25.57-6.38-5.45-20.72-7.93-20.72-7.93l-15.78,32.59-14.29-32.9Z"/>
          <path class="st9" d="M198.96,161.44l14.1,32.67-14.99-9.69,3.37-5.79-16.77-13.85s9.51-3.68,14.28-3.35Z"/>
          <path class="st9" d="M228.84,161.52l-15.78,32.59,14.99-9.69-3.37-5.79,16.77-13.85s-7.83-3.6-12.61-3.27Z"/>
          <polygon class="st3" points="195.83 161.5 208.51 170.34 207.45 165.92 195.83 161.5"/>
          <polygon class="st3" points="231.51 161.66 217.61 170.52 218.82 165.37 231.51 161.66"/>
          <g>
            <polygon class="st7" points="204.79 157.22 195.83 161.5 206.43 167.83 213.84 159.65 204.79 157.22"/>
            <path class="st2" d="M204.65,160.36c1.32-1.2,2.87-2,4.69-1.92l-4.55-1.22-8.96,4.28,8,4.78c-1-1.93-.96-4.29.83-5.91Z"/>
          </g>
          <g>
            <polygon class="st7" points="222.72 157.22 231.68 161.5 221.08 167.83 213.67 159.65 222.72 157.22"/>
            <path class="st2" d="M222.86,160.36c-1.32-1.2-2.87-2-4.69-1.92l4.55-1.22,8.96,4.28-8,4.78c1-1.93.96-4.29-.83-5.91Z"/>
          </g>
          <path class="st6" d="M179.35,115.47l3.43,3.43.66-27.58s.22-14.32,15.44-14.32c0,0,12.49,6.49,28.39,1.13,0,0,14.22-2.24,15.89,12.53l-.11,28.81,3.63-4.49.21-3.75s2.16-12.15,0-30.01c0,0-2.87-19.76-20.72-23.12,0,0-29.17-7.51-41.47,10.86,0,0-9.39,10.96-6.91,28.11l1.57,18.42Z"/>
        </g>
      </g>
    </g>
  </g>
</svg>