<?xml version="1.0" encoding="UTF-8"?>
<svg id="Capa_1" xmlns="http://www.w3.org/2000/svg" version="1.1" viewBox="0 0 425.2 318.26">
  <!-- Generator: Adobe Illustrator 29.1.0, SVG Export Plug-In . SVG Version: 2.1.0 Build 142)  -->
  <defs>
    <style>
      .st0 {
        fill: #fff;
      }

      .st1 {
        fill: #262833;
      }

      .st2 {
        fill: #6ac9f2;
      }
    </style>
  </defs>
  <rect class="st2" x="0" y="0" width="425.2" height="425.2"/>
  <g>
    <polygon class="st1" points="190.58 223 179.21 229.56 190.58 236.13 201.96 229.56 190.58 223"/>
    <polygon class="st0" points="156.46 203.3 145.09 209.86 156.46 216.43 167.84 209.86 156.46 203.3"/>
    <polygon class="st0" points="179.21 216.43 167.84 223 179.21 229.56 190.58 223 179.21 216.43"/>
    <polygon class="st1" points="167.84 209.86 156.46 216.43 167.84 223 179.21 216.43 167.84 209.86"/>
    <polygon class="st0" points="190.58 236.13 201.96 242.69 213.33 236.13 201.96 229.56 190.58 236.13"/>
    <polygon class="st1" points="122.34 183.6 110.97 190.16 122.34 196.73 133.71 190.16 122.34 183.6"/>
    <polygon class="st1" points="145.09 196.73 133.71 203.3 145.09 209.86 156.46 203.3 145.09 196.73"/>
    <polygon class="st0" points="110.97 177.03 99.59 183.6 110.97 190.16 122.34 183.6 110.97 177.03"/>
    <polygon class="st0" points="133.71 190.16 122.34 196.73 133.71 203.3 145.09 196.73 133.71 190.16"/>
    <polygon class="st1" points="213.33 262.39 224.7 255.83 213.33 249.26 201.96 255.83 213.33 262.39"/>
    <polygon class="st0" points="224.7 242.69 213.33 249.26 224.7 255.83 234.3 250.28 236.07 249.26 224.7 242.69"/>
    <polygon class="st1" points="99.59 183.6 88.22 190.16 99.59 196.73 110.97 190.16 99.59 183.6"/>
    <polygon class="st0" points="110.97 190.16 99.59 196.73 110.97 203.3 122.34 196.73 110.97 190.16"/>
    <polygon class="st1" points="122.34 196.73 110.97 203.3 122.34 209.86 133.71 203.3 122.34 196.73"/>
    <polygon class="st0" points="156.46 216.43 145.09 223 156.46 229.56 167.84 223 156.46 216.43"/>
    <polygon class="st1" points="190.58 236.13 179.21 242.69 190.58 249.26 201.96 242.69 190.58 236.13"/>
    <polygon class="st0" points="179.21 229.56 167.84 236.13 179.21 242.69 190.58 236.13 179.21 229.56"/>
    <polygon class="st1" points="145.09 209.86 133.71 216.43 145.09 223 156.46 216.43 145.09 209.86"/>
    <polygon class="st0" points="133.71 203.3 122.34 209.86 133.71 216.43 145.09 209.86 133.71 203.3"/>
    <polygon class="st1" points="167.84 223 156.46 229.56 167.84 236.13 179.21 229.56 167.84 223"/>
    <polygon class="st0" points="190.58 249.26 201.96 255.83 213.33 249.26 201.96 242.69 190.58 249.26"/>
    <polygon class="st1" points="201.96 242.69 213.33 249.26 224.7 242.69 213.33 236.13 201.96 242.69"/>
    <polygon class="st1" points="213.33 209.86 201.95 216.43 213.33 222.99 224.7 216.43 213.33 209.86"/>
    <polygon class="st0" points="179.2 190.16 167.83 196.73 179.2 203.29 190.58 196.73 179.2 190.16"/>
    <polygon class="st0" points="201.95 203.29 190.58 209.86 201.95 216.43 213.33 209.86 201.95 203.29"/>
    <polygon class="st1" points="190.58 196.73 179.2 203.29 190.58 209.86 201.95 203.29 190.58 196.73"/>
    <polygon class="st0" points="213.33 222.99 224.7 229.56 236.07 222.99 224.7 216.43 213.33 222.99"/>
    <polygon class="st1" points="145.08 170.46 133.71 177.03 145.08 183.59 156.46 177.03 145.08 170.46"/>
    <polygon class="st1" points="167.83 183.59 156.46 190.16 167.83 196.73 179.2 190.16 167.83 183.59"/>
    <polygon class="st0" points="133.71 163.89 122.34 170.46 133.71 177.03 145.08 170.46 133.71 163.89"/>
    <polygon class="st0" points="156.46 177.03 145.08 183.59 156.46 190.16 167.83 183.59 156.46 177.03"/>
    <polygon class="st1" points="236.07 249.26 247.45 242.69 236.07 236.13 224.7 242.69 236.07 249.26"/>
    <polygon class="st0" points="247.45 229.56 236.07 236.13 247.45 242.69 257.05 237.15 258.81 236.12 247.45 229.56"/>
    <polygon class="st1" points="122.34 170.46 110.96 177.03 122.34 183.59 133.71 177.03 122.34 170.46"/>
    <polygon class="st0" points="133.71 177.03 122.34 183.59 133.71 190.16 145.08 183.59 133.71 177.03"/>
    <polygon class="st1" points="145.08 183.59 133.71 190.16 145.08 196.73 156.46 190.16 145.08 183.59"/>
    <polygon class="st0" points="179.2 203.29 167.83 209.86 179.2 216.43 190.58 209.86 179.2 203.29"/>
    <polygon class="st1" points="213.33 222.99 201.95 229.56 213.33 236.13 224.7 229.56 213.33 222.99"/>
    <polygon class="st0" points="201.95 216.43 190.58 222.99 201.95 229.56 213.33 222.99 201.95 216.43"/>
    <polygon class="st1" points="167.83 196.73 156.46 203.29 167.83 209.86 179.2 203.29 167.83 196.73"/>
    <polygon class="st0" points="156.46 190.16 145.08 196.73 156.46 203.29 167.83 196.73 156.46 190.16"/>
    <polygon class="st1" points="190.58 209.86 179.2 216.43 190.58 222.99 201.95 216.43 190.58 209.86"/>
    <polygon class="st0" points="213.33 236.13 224.7 242.69 236.07 236.13 224.7 229.56 213.33 236.13"/>
    <polygon class="st1" points="224.7 229.56 236.07 236.13 247.45 229.56 236.07 222.99 224.7 229.56"/>
    <polygon class="st1" points="236.05 196.72 224.68 203.29 236.05 209.86 247.42 203.29 236.05 196.72"/>
    <polygon class="st0" points="201.93 177.02 190.56 183.59 201.93 190.16 213.3 183.59 201.93 177.02"/>
    <polygon class="st0" points="224.68 190.16 213.3 196.72 224.68 203.29 236.05 196.72 224.68 190.16"/>
    <polygon class="st1" points="213.3 183.59 201.93 190.16 213.3 196.72 224.68 190.16 213.3 183.59"/>
    <polygon class="st0" points="236.05 209.86 247.42 216.42 258.8 209.86 247.42 203.29 236.05 209.86"/>
    <polygon class="st1" points="167.81 157.32 156.43 163.89 167.81 170.46 179.18 163.89 167.81 157.32"/>
    <polygon class="st1" points="190.56 170.46 179.18 177.02 190.56 183.59 201.93 177.02 190.56 170.46"/>
    <polygon class="st0" points="156.43 150.76 145.06 157.32 156.43 163.89 167.81 157.32 156.43 150.76"/>
    <polygon class="st0" points="179.18 163.89 167.81 170.46 179.18 177.02 190.56 170.46 179.18 163.89"/>
    <polygon class="st1" points="258.8 236.12 270.17 229.56 258.8 222.99 247.42 229.56 258.8 236.12"/>
    <polygon class="st0" points="270.17 216.42 258.8 222.99 270.17 229.56 279.77 224.01 281.54 222.99 270.17 216.42"/>
    <polygon class="st1" points="145.06 157.32 133.69 163.89 145.06 170.46 156.43 163.89 145.06 157.32"/>
    <polygon class="st0" points="156.43 163.89 145.06 170.46 156.43 177.02 167.81 170.46 156.43 163.89"/>
    <polygon class="st1" points="167.81 170.46 156.43 177.02 167.81 183.59 179.18 177.02 167.81 170.46"/>
    <polygon class="st0" points="201.93 190.16 190.56 196.72 201.93 203.29 213.3 196.72 201.93 190.16"/>
    <polygon class="st1" points="236.05 209.86 224.68 216.42 236.05 222.99 247.42 216.42 236.05 209.86"/>
    <polygon class="st0" points="224.68 203.29 213.3 209.86 224.68 216.42 236.05 209.86 224.68 203.29"/>
    <polygon class="st1" points="190.56 183.59 179.18 190.16 190.56 196.72 201.93 190.16 190.56 183.59"/>
    <polygon class="st0" points="179.18 177.02 167.81 183.59 179.18 190.16 190.56 183.59 179.18 177.02"/>
    <polygon class="st1" points="213.3 196.72 201.93 203.29 213.3 209.86 224.68 203.29 213.3 196.72"/>
    <polygon class="st0" points="236.05 222.99 247.42 229.56 258.8 222.99 247.42 216.42 236.05 222.99"/>
    <polygon class="st1" points="247.42 216.42 258.8 222.99 270.17 216.42 258.8 209.86 247.42 216.42"/>
    <polygon class="st1" points="258.79 183.59 247.42 190.16 258.79 196.72 270.17 190.16 258.79 183.59"/>
    <polygon class="st0" points="224.67 163.89 213.3 170.46 224.67 177.02 236.05 170.46 224.67 163.89"/>
    <polygon class="st0" points="247.42 177.02 236.05 183.59 247.42 190.16 258.79 183.59 247.42 177.02"/>
    <polygon class="st1" points="236.05 170.46 224.67 177.02 236.05 183.59 247.42 177.02 236.05 170.46"/>
    <polygon class="st0" points="258.79 196.72 270.17 203.29 281.54 196.72 270.17 190.16 258.79 196.72"/>
    <polygon class="st1" points="190.55 144.19 179.18 150.76 190.55 157.32 201.93 150.76 190.55 144.19"/>
    <polygon class="st1" points="213.3 157.32 201.93 163.89 213.3 170.46 224.67 163.89 213.3 157.32"/>
    <polygon class="st0" points="179.18 137.62 167.8 144.19 179.18 150.76 190.55 144.19 179.18 137.62"/>
    <polygon class="st0" points="201.93 150.76 190.55 157.32 201.93 163.89 213.3 157.32 201.93 150.76"/>
    <polygon class="st1" points="281.54 222.99 292.91 216.42 281.54 209.86 270.17 216.42 281.54 222.99"/>
    <polygon class="st0" points="292.91 203.29 281.54 209.86 292.91 216.42 302.52 210.88 304.28 209.85 292.91 203.29"/>
    <polygon class="st1" points="167.8 144.19 156.43 150.76 167.8 157.32 179.18 150.76 167.8 144.19"/>
    <polygon class="st0" points="179.18 150.76 167.8 157.32 179.18 163.89 190.55 157.32 179.18 150.76"/>
    <polygon class="st1" points="190.55 157.32 179.18 163.89 190.55 170.46 201.93 163.89 190.55 157.32"/>
    <polygon class="st0" points="224.67 177.02 213.3 183.59 224.67 190.16 236.05 183.59 224.67 177.02"/>
    <polygon class="st1" points="258.79 196.72 247.42 203.29 258.79 209.86 270.17 203.29 258.79 196.72"/>
    <polygon class="st0" points="247.42 190.16 236.05 196.72 247.42 203.29 258.79 196.72 247.42 190.16"/>
    <polygon class="st1" points="213.3 170.46 201.93 177.02 213.3 183.59 224.67 177.02 213.3 170.46"/>
    <polygon class="st0" points="201.93 163.89 190.55 170.46 201.93 177.02 213.3 170.46 201.93 163.89"/>
    <polygon class="st1" points="236.05 183.59 224.67 190.16 236.05 196.72 247.42 190.16 236.05 183.59"/>
    <polygon class="st0" points="258.79 209.86 270.17 216.42 281.54 209.86 270.17 203.29 258.79 209.86"/>
    <polygon class="st1" points="270.17 203.29 281.54 209.86 292.91 203.29 281.54 196.72 270.17 203.29"/>
    <polygon class="st1" points="281.54 170.46 270.17 177.02 281.54 183.59 292.91 177.02 281.54 170.46"/>
    <polygon class="st0" points="247.42 150.76 236.04 157.32 247.42 163.89 258.79 157.32 247.42 150.76"/>
    <polygon class="st0" points="270.17 163.89 258.79 170.46 270.17 177.02 281.54 170.46 270.17 163.89"/>
    <polygon class="st1" points="258.79 157.32 247.42 163.89 258.79 170.46 270.17 163.89 258.79 157.32"/>
    <polygon class="st0" points="281.54 183.59 292.91 190.16 304.29 183.59 292.91 177.02 281.54 183.59"/>
    <polygon class="st1" points="213.3 131.06 201.92 137.62 213.3 144.19 224.67 137.62 213.3 131.06"/>
    <polygon class="st1" points="236.04 144.19 224.67 150.76 236.04 157.32 247.42 150.76 236.04 144.19"/>
    <polygon class="st0" points="201.92 124.49 190.55 131.06 201.92 137.62 213.3 131.06 201.92 124.49"/>
    <polygon class="st0" points="224.67 137.62 213.3 144.19 224.67 150.76 236.04 144.19 224.67 137.62"/>
    <polygon class="st1" points="304.29 209.86 315.66 203.29 304.29 196.72 292.91 203.29 304.29 209.86"/>
    <polygon class="st0" points="315.66 190.16 304.29 196.72 315.66 203.29 325.26 197.75 327.03 196.72 315.66 190.16"/>
    <polygon class="st1" points="190.55 131.06 179.18 137.62 190.55 144.19 201.92 137.62 190.55 131.06"/>
    <polygon class="st0" points="201.92 137.62 190.55 144.19 201.92 150.76 213.3 144.19 201.92 137.62"/>
    <polygon class="st1" points="213.3 144.19 201.92 150.76 213.3 157.32 224.67 150.76 213.3 144.19"/>
    <polygon class="st0" points="247.42 163.89 236.04 170.46 247.42 177.02 258.79 170.46 247.42 163.89"/>
    <polygon class="st1" points="281.54 183.59 270.17 190.16 281.54 196.72 292.91 190.16 281.54 183.59"/>
    <polygon class="st0" points="270.17 177.02 258.79 183.59 270.17 190.16 281.54 183.59 270.17 177.02"/>
    <polygon class="st1" points="236.04 157.32 224.67 163.89 236.04 170.46 247.42 163.89 236.04 157.32"/>
    <polygon class="st0" points="224.67 150.76 213.3 157.32 224.67 163.89 236.04 157.32 224.67 150.76"/>
    <polygon class="st1" points="258.79 170.46 247.42 177.02 258.79 183.59 270.17 177.02 258.79 170.46"/>
    <polygon class="st0" points="281.54 196.72 292.91 203.29 304.29 196.72 292.91 190.16 281.54 196.72"/>
    <polygon class="st1" points="292.91 190.16 304.29 196.72 315.66 190.16 304.29 183.59 292.91 190.16"/>
    <polygon class="st1" points="304.28 157.32 292.91 163.89 304.28 170.46 315.66 163.89 304.28 157.32"/>
    <polygon class="st0" points="270.16 137.62 258.79 144.19 270.16 150.76 281.54 144.19 270.16 137.62"/>
    <polygon class="st0" points="292.91 150.76 281.54 157.32 292.91 163.89 304.28 157.32 292.91 150.76"/>
    <polygon class="st1" points="281.54 144.19 270.16 150.76 281.54 157.32 292.91 150.76 281.54 144.19"/>
    <polygon class="st0" points="304.28 170.46 315.66 177.02 327.03 170.46 315.66 163.89 304.28 170.46"/>
    <polygon class="st1" points="236.04 117.92 224.67 124.49 236.04 131.06 247.41 124.49 236.04 117.92"/>
    <polygon class="st1" points="258.79 131.06 247.41 137.62 258.79 144.19 270.16 137.62 258.79 131.06"/>
    <polygon class="st0" points="224.67 111.36 213.29 117.92 224.67 124.49 236.04 117.92 224.67 111.36"/>
    <polygon class="st0" points="247.41 124.49 236.04 131.06 247.41 137.62 258.79 131.06 247.41 124.49"/>
    <polygon class="st1" points="327.03 196.72 338.4 190.16 327.03 183.59 315.66 190.16 327.03 196.72"/>
    <polygon class="st0" points="338.4 177.02 327.03 183.59 338.4 190.16 348 184.61 349.77 183.59 338.4 177.02"/>
    <polygon class="st1" points="213.29 117.92 201.92 124.49 213.29 131.06 224.67 124.49 213.29 117.92"/>
    <polygon class="st0" points="224.67 124.49 213.29 131.06 224.67 137.62 236.04 131.06 224.67 124.49"/>
    <polygon class="st1" points="236.04 131.06 224.67 137.62 236.04 144.19 247.41 137.62 236.04 131.06"/>
    <polygon class="st0" points="270.16 150.76 258.79 157.32 270.16 163.89 281.54 157.32 270.16 150.76"/>
    <polygon class="st1" points="304.28 170.46 292.91 177.02 304.28 183.59 315.66 177.02 304.28 170.46"/>
    <polygon class="st0" points="292.91 163.89 281.54 170.46 292.91 177.02 304.28 170.46 292.91 163.89"/>
    <polygon class="st1" points="258.79 144.19 247.41 150.76 258.79 157.32 270.16 150.76 258.79 144.19"/>
    <polygon class="st0" points="247.41 137.62 236.04 144.19 247.41 150.76 258.79 144.19 247.41 137.62"/>
    <polygon class="st1" points="281.54 157.32 270.16 163.89 281.54 170.46 292.91 163.89 281.54 157.32"/>
    <polygon class="st0" points="304.28 183.59 315.66 190.16 327.03 183.59 315.66 177.02 304.28 183.59"/>
    <polygon class="st1" points="315.66 177.02 327.03 183.59 338.4 177.02 327.03 170.46 315.66 177.02"/>
    <polygon class="st1" points="327.03 144.21 315.66 150.78 327.03 157.35 338.41 150.78 327.03 144.21"/>
    <polygon class="st0" points="292.91 124.51 281.54 131.08 292.91 137.65 304.29 131.08 292.91 124.51"/>
    <polygon class="st0" points="315.66 137.65 304.29 144.21 315.66 150.78 327.03 144.21 315.66 137.65"/>
    <polygon class="st1" points="304.29 131.08 292.91 137.65 304.29 144.21 315.66 137.65 304.29 131.08"/>
    <polygon class="st0" points="327.03 157.35 338.41 163.91 349.78 157.35 338.41 150.78 327.03 157.35"/>
    <polygon class="st1" points="258.79 104.81 247.42 111.38 258.79 117.95 270.16 111.38 258.79 104.81"/>
    <polygon class="st1" points="281.54 117.95 270.16 124.51 281.54 131.08 292.91 124.51 281.54 117.95"/>
    <polygon class="st0" points="247.42 98.25 236.04 104.81 247.42 111.38 258.79 104.81 247.42 98.25"/>
    <polygon class="st0" points="270.16 111.38 258.79 117.95 270.16 124.51 281.54 117.95 270.16 111.38"/>
    <polygon class="st1" points="349.78 183.61 361.15 177.05 349.78 170.48 338.41 177.05 349.78 183.61"/>
    <polygon class="st0" points="361.15 163.91 349.78 170.48 361.15 177.05 370.75 171.5 372.52 170.48 361.15 163.91"/>
    <polygon class="st1" points="236.04 104.81 224.67 111.38 236.04 117.95 247.42 111.38 236.04 104.81"/>
    <polygon class="st0" points="247.42 111.38 236.04 117.95 247.42 124.51 258.79 117.95 247.42 111.38"/>
    <polygon class="st1" points="258.79 117.95 247.42 124.51 258.79 131.08 270.16 124.51 258.79 117.95"/>
    <polygon class="st0" points="292.91 137.65 281.54 144.21 292.91 150.78 304.29 144.21 292.91 137.65"/>
    <polygon class="st1" points="327.03 157.35 315.66 163.91 327.03 170.48 338.41 163.91 327.03 157.35"/>
    <polygon class="st0" points="315.66 150.78 304.29 157.35 315.66 163.91 327.03 157.35 315.66 150.78"/>
    <polygon class="st1" points="281.54 131.08 270.16 137.65 281.54 144.21 292.91 137.65 281.54 131.08"/>
    <polygon class="st0" points="270.16 124.51 258.79 131.08 270.16 137.65 281.54 131.08 270.16 124.51"/>
    <polygon class="st1" points="304.29 144.21 292.91 150.78 304.29 157.35 315.66 150.78 304.29 144.21"/>
    <polygon class="st0" points="327.03 170.48 338.41 177.05 349.78 170.48 338.41 163.91 327.03 170.48"/>
    <polygon class="st1" points="338.41 163.91 349.78 170.48 361.15 163.91 349.78 157.35 338.41 163.91"/>
    <polygon class="st1" points="372.52 170.48 383.9 163.91 372.52 157.35 361.15 163.91 372.52 170.48"/>
    <polygon class="st1" points="258.79 91.68 247.41 98.25 258.79 104.81 270.16 98.25 258.79 91.68"/>
    <g>
      <polygon class="st1" points="99.59 170.46 88.22 177.03 99.59 183.6 110.97 177.03 99.59 170.46"/>
      <polygon class="st0" points="88.22 177.03 76.85 183.6 88.22 190.16 99.59 183.6 88.22 177.03"/>
      <polygon class="st1" points="76.85 170.46 65.47 177.03 76.85 183.6 88.22 177.03 76.85 170.46"/>
      <polygon class="st0" points="99.59 170.46 88.22 163.9 76.85 170.46 88.22 177.03 99.59 170.46"/>
      <polygon class="st1" points="122.34 157.33 110.96 163.89 122.34 170.46 133.71 163.89 122.34 157.33"/>
      <polygon class="st0" points="110.96 163.89 99.59 170.46 110.96 177.03 122.34 170.46 110.96 163.89"/>
      <polygon class="st1" points="99.59 157.33 88.22 163.89 99.59 170.46 110.96 163.89 99.59 157.33"/>
      <polygon class="st0" points="122.34 157.33 110.96 150.76 99.59 157.33 110.96 163.89 122.34 157.33"/>
      <polygon class="st1" points="145.06 144.19 133.69 150.76 145.06 157.32 156.43 150.76 145.06 144.19"/>
      <polygon class="st0" points="133.69 150.76 122.31 157.32 133.69 163.89 145.06 157.32 133.69 150.76"/>
      <polygon class="st1" points="122.31 144.19 110.94 150.76 122.31 157.32 133.69 150.76 122.31 144.19"/>
      <polygon class="st0" points="145.06 144.19 133.69 137.62 122.31 144.19 133.69 150.76 145.06 144.19"/>
      <polygon class="st1" points="167.8 131.06 156.43 137.62 167.8 144.19 179.18 137.62 167.8 131.06"/>
      <polygon class="st0" points="156.43 137.62 145.06 144.19 156.43 150.76 167.8 144.19 156.43 137.62"/>
      <polygon class="st1" points="145.06 131.06 133.68 137.62 145.06 144.19 156.43 137.62 145.06 131.06"/>
      <polygon class="st0" points="167.8 131.06 156.43 124.49 145.06 131.06 156.43 137.62 167.8 131.06"/>
      <polygon class="st1" points="190.55 117.92 179.18 124.49 190.55 131.06 201.92 124.49 190.55 117.92"/>
      <polygon class="st0" points="179.18 124.49 167.8 131.06 179.18 137.62 190.55 131.06 179.18 124.49"/>
      <polygon class="st1" points="167.8 117.92 156.43 124.49 167.8 131.06 179.18 124.49 167.8 117.92"/>
      <polygon class="st0" points="190.55 117.92 179.18 111.36 167.8 117.92 179.18 124.49 190.55 117.92"/>
      <polygon class="st1" points="213.29 104.79 201.92 111.36 213.29 117.92 224.67 111.36 213.29 104.79"/>
      <polygon class="st0" points="201.92 111.36 190.55 117.92 201.92 124.49 213.29 117.92 201.92 111.36"/>
      <polygon class="st1" points="190.55 104.79 179.17 111.36 190.55 117.92 201.92 111.36 190.55 104.79"/>
      <polygon class="st0" points="213.29 104.79 201.92 98.22 190.55 104.79 201.92 111.36 213.29 104.79"/>
      <polygon class="st1" points="236.04 91.68 224.67 98.25 236.04 104.81 247.42 98.25 236.04 91.68"/>
      <polygon class="st0" points="224.67 98.25 213.3 104.81 224.67 111.38 236.04 104.81 224.67 98.25"/>
      <polygon class="st1" points="213.3 91.68 201.92 98.25 213.3 104.81 224.67 98.25 213.3 91.68"/>
      <polygon class="st0" points="236.04 91.68 224.67 85.11 213.3 91.68 224.67 98.25 236.04 91.68"/>
      <polygon class="st0" points="247.41 85.11 236.04 91.68 247.41 98.25 258.79 91.68 247.41 85.11"/>
      <polygon class="st1" points="236.04 78.55 224.67 85.11 236.04 91.68 247.41 85.11 236.04 78.55"/>
    </g>
    <g>
      <polygon class="st1" points="76.85 157.33 65.48 163.9 76.85 170.46 88.23 163.9 76.85 157.33"/>
      <polygon class="st0" points="65.48 163.9 54.11 170.46 65.48 177.03 76.85 170.46 65.48 163.9"/>
      <polygon class="st1" points="54.11 157.33 42.73 163.9 54.11 170.46 65.48 163.9 54.11 157.33"/>
      <polygon class="st0" points="76.85 157.33 65.48 150.76 54.11 157.33 65.48 163.9 76.85 157.33"/>
      <polygon class="st1" points="99.6 144.2 88.22 150.76 99.6 157.33 110.97 150.76 99.6 144.2"/>
      <polygon class="st0" points="88.22 150.76 76.85 157.33 88.22 163.89 99.6 157.33 88.22 150.76"/>
      <polygon class="st1" points="76.85 144.2 65.48 150.76 76.85 157.33 88.22 150.76 76.85 144.2"/>
      <polygon class="st0" points="99.6 144.2 88.22 137.63 76.85 144.2 88.22 150.76 99.6 144.2"/>
      <polygon class="st1" points="122.32 131.06 110.95 137.62 122.32 144.19 133.7 137.62 122.32 131.06"/>
      <polygon class="st0" points="110.95 137.62 99.57 144.19 110.95 150.76 122.32 144.19 110.95 137.62"/>
      <polygon class="st1" points="99.57 131.06 88.2 137.62 99.57 144.19 110.95 137.62 99.57 131.06"/>
      <polygon class="st0" points="122.32 131.06 110.95 124.49 99.57 131.06 110.95 137.62 122.32 131.06"/>
      <polygon class="st1" points="145.06 117.92 133.69 124.49 145.06 131.06 156.44 124.49 145.06 117.92"/>
      <polygon class="st0" points="133.69 124.49 122.32 131.06 133.69 137.62 145.06 131.06 133.69 124.49"/>
      <polygon class="st1" points="122.32 117.92 110.94 124.49 122.32 131.06 133.69 124.49 122.32 117.92"/>
      <polygon class="st0" points="145.06 117.92 133.69 111.36 122.32 117.92 133.69 124.49 145.06 117.92"/>
      <polygon class="st1" points="167.81 104.79 156.44 111.36 167.81 117.92 179.18 111.36 167.81 104.79"/>
      <polygon class="st0" points="156.44 111.36 145.06 117.92 156.44 124.49 167.81 117.92 156.44 111.36"/>
      <polygon class="st1" points="145.06 104.79 133.69 111.36 145.06 117.92 156.44 111.36 145.06 104.79"/>
      <polygon class="st0" points="167.81 104.79 156.44 98.22 145.06 104.79 156.44 111.36 167.81 104.79"/>
      <polygon class="st1" points="190.55 91.66 179.18 98.22 190.55 104.79 201.93 98.22 190.55 91.66"/>
      <polygon class="st0" points="179.18 98.22 167.81 104.79 179.18 111.36 190.55 104.79 179.18 98.22"/>
      <polygon class="st1" points="167.81 91.66 156.43 98.22 167.81 104.79 179.18 98.22 167.81 91.66"/>
      <polygon class="st0" points="190.55 91.66 179.18 85.09 167.81 91.66 179.18 98.22 190.55 91.66"/>
      <polygon class="st1" points="213.3 78.55 201.93 85.11 213.3 91.68 224.68 85.11 213.3 78.55"/>
      <polygon class="st0" points="201.93 85.11 190.56 91.68 201.93 98.25 213.3 91.68 201.93 85.11"/>
      <polygon class="st1" points="190.56 78.55 179.18 85.11 190.56 91.68 201.93 85.11 190.56 78.55"/>
      <polygon class="st0" points="213.3 78.55 201.93 71.98 190.56 78.55 201.93 85.11 213.3 78.55"/>
      <polygon class="st0" points="224.67 71.98 213.3 78.55 224.67 85.11 236.05 78.55 224.67 71.98"/>
      <polygon class="st1" points="213.3 65.41 201.93 71.98 213.3 78.55 224.67 71.98 213.3 65.41"/>
    </g>
    <polygon class="st0" points="270.16 98.25 258.79 104.81 270.16 111.38 281.53 104.81 270.16 98.25"/>
    <polygon class="st1" points="281.53 104.81 270.16 111.38 281.53 117.95 292.91 111.38 281.53 104.81"/>
    <polygon class="st0" points="315.65 124.51 304.28 131.08 315.65 137.65 327.03 131.08 315.65 124.51"/>
    <polygon class="st1" points="349.78 144.21 338.4 150.78 349.78 157.35 361.15 150.78 349.78 144.21"/>
    <polygon class="st0" points="338.4 137.65 327.03 144.21 338.4 150.78 349.78 144.21 338.4 137.65"/>
    <polygon class="st1" points="304.28 117.95 292.91 124.51 304.28 131.08 315.65 124.51 304.28 117.95"/>
    <polygon class="st0" points="292.91 111.38 281.53 117.95 292.91 124.51 304.28 117.95 292.91 111.38"/>
    <polygon class="st1" points="327.03 131.08 315.65 137.65 327.03 144.21 338.4 137.65 327.03 131.08"/>
    <polygon class="st0" points="349.78 157.35 361.15 163.91 372.52 157.35 361.15 150.78 349.78 157.35"/>
  </g>
</svg>