<?xml version="1.0" encoding="UTF-8"?>
<svg id="Capa_1" xmlns="http://www.w3.org/2000/svg" version="1.1" viewBox="0 0 425.2 318.26">
  <!-- Generator: Adobe Illustrator 29.1.0, SVG Export Plug-In . SVG Version: 2.1.0 Build 142)  -->
  <defs>
    <style>
      .st0 {
        fill: #d5d5ec;
      }

      .st0, .st1, .st2, .st3, .st4, .st5, .st6, .st7, .st8, .st9, .st10, .st11, .st12, .st13, .st14, .st15, .st16, .st17, .st18, .st19, .st20, .st21, .st22, .st23, .st24, .st25, .st26, .st27, .st28, .st29, .st30, .st31, .st32, .st33, .st34, .st35, .st36, .st37, .st38, .st39, .st40, .st41, .st42, .st43, .st44, .st45 {
        fill-rule: evenodd;
      }

      .st1 {
        fill: #c4c5df;
      }

      .st2 {
        fill: #dae0df;
      }

      .st3 {
        fill: #ecac8a;
      }

      .st4 {
        fill: #878787;
      }

      .st5 {
        fill: #f1f1f1;
      }

      .st6 {
        fill: #b8b8b8;
      }

      .st7 {
        fill: #c17669;
      }

      .st8 {
        fill: #ce765f;
      }

      .st9 {
        fill: #a1caeb;
      }

      .st10 {
        fill: #8b98cc;
      }

      .st11, .st30 {
        fill: #b5c7e8;
      }

      .st12 {
        fill: #d0d0ce;
      }

      .st13 {
        fill: #eaeaea;
      }

      .st14 {
        fill: #fff;
      }

      .st15 {
        fill: #fbfbfb;
      }

      .st16 {
        fill: #97a4d4;
      }

      .st17 {
        fill: #bcd0ed;
      }

      .st18 {
        fill: #fbc88a;
      }

      .st19 {
        fill: #e7e6e6;
      }

      .st20 {
        fill: #f9f9f9;
      }

      .st21 {
        fill: #dbdaef;
      }

      .st22 {
        fill: #cdcccc;
      }

      .st23 {
        fill: #a2b3dd;
      }

      .st24 {
        fill: #ba6758;
      }

      .st25 {
        fill: #c7685d;
      }

      .st26 {
        fill: #c5dff4;
      }

      .st27 {
        fill: #fbd691;
      }

      .st28 {
        fill: #f6f6f6;
      }

      .st29 {
        fill: #cac9c9;
      }

      .st30 {
        stroke: #b5c7e8;
        stroke-miterlimit: 10;
        stroke-width: .2px;
      }

      .st31 {
        fill: #f29078;
      }

      .st32 {
        fill: #fbd791;
      }

      .st33 {
        fill: #d8dddc;
      }

      .st34 {
        fill: #e68469;
      }

      .st35 {
        fill: #a9bde3;
      }

      .st36 {
        fill: #f5f5f5;
      }

      .st37 {
        fill: #aa6351;
      }

      .st38 {
        fill: #b4b4b4;
      }

      .st39 {
        fill: #eaf0ee;
      }

      .st46 {
        fill: #6ac9f2;
      }

      .st40 {
        fill: #fac293;
      }

      .st41 {
        fill: #b3c8e9;
      }

      .st42 {
        fill: #a8bde3;
      }

      .st43 {
        fill: #dfdfdc;
      }

      .st44 {
        fill: #f3f3f3;
      }

      .st45 {
        fill: #f8b47b;
      }
    </style>
  </defs>
  <rect class="st46" x="0" y="0" width="425.2" height="425.2"/>
  <g>
    <polygon class="st39" points="243.92 127.94 156.58 178.36 258.91 237.43 346.25 187.01 243.92 127.94"/>
    <polygon class="st43" points="163.77 174.21 81.81 221.53 184.14 280.61 266.1 233.29 163.77 174.21"/>
    <polygon class="st1" points="81.82 221.54 81.83 221.53 184.14 280.6 184.15 282.7 81.82 223.63 81.82 223.63 81.82 221.54"/>
    <polygon class="st0" points="267.27 232.62 267.26 232.62 184.15 280.6 184.15 282.7 267.27 234.71 267.27 234.71 267.27 232.62"/>
    <polygon class="st17" points="108.2 205.77 81.83 221.53 123.84 245.79 150.21 230.02 108.2 205.77"/>
    <polygon class="st2" points="346.25 187.02 346.25 187.01 266.1 233.28 266.1 235.39 346.25 189.11 346.25 189.11 346.25 187.02"/>
  </g>
  <g>
    <polygon class="st19" points="223.35 67.08 183.57 90.06 178 86.84 217.81 63.86 223.35 67.08"/>
    <polygon class="st29" points="213.37 106.79 173.58 129.77 173.58 90.58 213.37 67.6 213.37 106.79"/>
    <polygon class="st19" points="213.37 67.6 173.58 90.58 168.01 87.37 207.83 64.39 213.37 67.6"/>
    <polygon class="st37" points="243.93 127.97 163.81 174.24 163.81 132.04 243.93 85.79 243.93 127.97"/>
    <polygon class="st19" points="233.15 77.25 193.37 100.24 187.8 97.02 227.61 74.04 233.15 77.25"/>
    <polygon class="st29" points="223.35 106.27 183.57 129.25 183.57 90.05 223.35 67.08 223.35 106.27"/>
    <polygon class="st21" points="245.75 84.74 245.75 84.74 163.78 132.07 161.96 131.02 243.93 83.7 243.93 83.69 245.75 84.74"/>
    <polygon class="st29" points="233.15 116.44 193.36 139.43 193.36 100.23 233.15 77.25 233.15 116.44"/>
    <polygon class="st34" points="163.77 174.23 188.4 188.41 188.4 145.68 163.77 131.51 163.77 174.23"/>
    <polygon class="st8" points="188.39 188.41 188.41 188.31 188.41 145.73 194.32 142.31 194.32 184.9 188.39 188.41"/>
    <polygon class="st31" points="163.79 132.05 163.79 132.06 105.58 165.67 100.99 163.02 159.01 129.3 161.98 131.01 163.79 132.05"/>
    <polygon class="st1" points="81.82 223.63 81.83 223.63 81.82 179.38 77.43 176.84 77.44 221.1 80.01 222.59 81.82 223.63"/>
    <polygon class="st29" points="203.56 106.98 163.77 129.97 163.77 90.76 203.56 67.79 203.56 106.98"/>
    <polygon class="st19" points="203.56 67.79 163.77 90.77 158.2 87.56 198.01 64.57 203.56 67.79"/>
    <polygon class="st38" points="163.77 132.03 163.78 132.02 163.77 90.76 158.82 87.91 158.84 129.17 161.96 130.98 163.77 132.03"/>
    <polygon class="st41" points="163.76 174.25 81.82 221.57 81.82 179.38 163.76 132.07 163.76 174.25"/>
    <polygon class="st31" points="163.76 174.25 108.94 205.91 108.94 163.72 163.76 132.07 163.76 174.25"/>
    <polygon class="st33" points="251.68 98.48 234.04 110.14 226.05 105.65 231.03 103.11 225.55 100.34 228.62 98.56 226.09 97.1 239.84 88.76 249.55 94.37 247.34 95.98 251.68 98.48"/>
    <polygon class="st21" points="104.64 160.92 104.58 160.86 144.31 183.8 149.26 180.95 109.53 158 104.64 160.92"/>
    <polygon class="st21" points="111.06 162.5 111.11 162.45 81.74 179.41 77.02 176.69 106.15 159.87 111.06 162.5"/>
    <polygon class="st23" points="108.76 205.98 144.26 226.43 144.26 183.71 108.76 163.27 108.76 205.98"/>
    <polygon class="st42" points="144.25 226.43 144.26 226.33 144.26 183.76 149.47 180.75 149.48 223.33 144.25 226.43"/>
  </g>
  <g>
    <polygon class="st30" points="145.32 235.96 139.64 239.73 127.13 232.5 140.15 224.98 145.32 235.96"/>
    <polygon class="st12" points="145.32 235.96 139.64 239.73 136.76 238.06 146.24 232.39 145.32 235.96"/>
    <polygon class="st11" points="100.37 210.44 90.07 216.61 90.07 216.82 98.22 220.96 103.25 219.18 100.37 210.44"/>
    <polygon class="st35" points="94.16 198.22 90.09 200.56 90.07 216.82 100.55 210.96 96.86 199.78 94.16 198.22"/>
  </g>
  <g>
    <g>
      <polygon class="st37" points="243.93 127.97 346.25 187 346.25 144.81 243.93 85.79 243.93 127.97"/>
      <polygon class="st31" points="346.25 189.15 346.25 189.15 346.25 144.86 351.54 141.8 351.54 186.1 351.54 186.1 346.25 189.15"/>
    </g>
    <g>
      <polygon class="st37" points="243.92 83.69 346.24 142.71 346.24 100.52 243.92 41.5 243.92 83.69"/>
      <polygon class="st29" points="346.25 144.86 346.24 144.86 346.24 100.57 351.53 97.51 351.53 141.81 351.53 141.81 346.25 144.86"/>
      <polygon class="st19" points="249.22 38.44 249.22 38.44 351.53 97.51 346.23 100.57 243.95 41.52 249.22 38.44"/>
      <polygon class="st34" points="249.22 38.44 249.22 38.44 307.48 72.08 302.18 75.14 243.95 41.52 249.22 38.44"/>
      <polygon class="st38" points="302.18 117.32 346.24 142.71 346.24 100.52 302.18 75.14 302.18 117.32"/>
      <polygon class="st37" points="300.69 98.94 315.94 107.7 315.94 83.03 300.69 74.27 300.69 98.94"/>
    </g>
  </g>
  <g>
    <polygon class="st7" points="278.52 183.56 299.02 171.69 327.96 188.4 307.43 200.25 278.52 183.56"/>
    <polygon class="st25" points="265.49 181.97 286.01 170.1 314.95 186.81 294.41 198.67 265.49 181.97"/>
    <polygon class="st24" points="252.5 180.38 273.01 168.51 301.95 185.21 281.41 197.07 252.5 180.38"/>
    <polygon class="st37" points="239.37 178.86 259.88 166.99 288.82 183.7 268.29 195.56 239.37 178.86"/>
    <polygon class="st31" points="327.97 188.4 301.95 203.42 301.95 203.41 314.95 195.91 314.95 186.82 301.95 194.32 301.95 185.22 288.83 192.8 288.83 183.71 267.92 195.77 267.92 232.46 288.83 220.39 288.83 220.16 301.95 212.59 301.95 212.58 327.95 197.57 327.97 188.4"/>
    <polygon class="st31" points="266.1 233.51 266.1 233.51 266.1 191.1 271.15 188.17 271.15 230.59 271.15 230.59 266.1 233.51"/>
  </g>
  <polygon class="st34" points="218.14 205.65 266.1 233.28 266.1 190.54 218.14 162.91 218.14 205.65"/>
  <g>
    <polygon class="st6" points="264.7 158.99 264.7 158.99 286.56 171.62 286.56 173.72 264.7 161.09 264.7 161.09 264.7 158.99"/>
    <polygon class="st22" points="264.7 158.99 264.68 158.99 242.82 171.62 242.82 173.72 264.69 161.09 264.7 161.09 264.7 158.99"/>
    <path class="st39" d="M243.91,83.64l-80.16,46.28,102.33,59.08,80.16-46.28-102.33-59.08ZM264.7,158.99l-19.41,11.21,21.87,12.62,19.41-11.2-21.87-12.63Z"/>
    <polygon class="st22" points="346.25 142.73 346.24 142.72 266.1 188.99 266.09 191.1 346.25 144.82 346.25 144.83 346.25 142.73"/>
    <polygon class="st22" points="163.77 129.93 163.78 129.93 266.09 188.99 266.09 191.1 163.77 132.03 163.77 132.03 163.77 129.93"/>
  </g>
  <g>
    <polygon class="st15" points="93.09 207.33 99.52 203.62 99.52 196.18 93.09 199.89 93.09 207.33"/>
    <path class="st14" d="M90.59,198.45c2.15-1.23,4.29-2.48,6.44-3.71.97-.29,1.88.81,2.48,1.44-2.14,1.23-4.29,2.48-6.43,3.71-1.22-1.83-2.08-1.64-2.49-1.44h0Z"/>
    <path class="st36" d="M93.09,210.57c-1.3-.14-2.38-1.16-2.49-2.16v-9.95c.87-.47,1.71.27,2.49,1.44v10.68Z"/>
    <path class="st5" d="M104.98,217.26c0,.06.04,1.63.04,1.69-.1,1.27-1.56,2.16-4.89,1.78-2.59-.3-5.47-2.59-6.95-3.45v-10.12l13.92,2.12c-.08,2.74-.65,4.28-2.1,7.97h0Z"/>
    <path class="st20" d="M104.98,217.26s0,.28.01.6c-.22,1.18-1.69,1.97-4.87,1.61-2.39-.28-5.35-2.5-6.95-3.51l-.08-5.38v-3.42l14,2.14c-.08,2.74-.65,4.28-2.1,7.97h0Z"/>
    <path class="st44" d="M93.09,208.53v-1.2l14.4,2.04c-.03.86.12,1.78-.68,2.3-1.08.71-2.71,1.13-4.69.9-2.59-.3-7.54-3.14-9.03-4,0,0,0-.01,0-.04h0Z"/>
    <path class="st14" d="M93.09,207.33c2.14-1.24,4.29-2.48,6.43-3.72,2.15,1.23,4.29,2.48,6.44,3.71,3.11,1.96,1.29,4.6-3.85,4.01-2.6-.3-7.54-3.14-9.03-4h0Z"/>
    <polygon class="st22" points="92.43 207.32 92.59 207.17 92.04 206 90.8 205.89 90.65 206.04 91.81 206.47 92.43 207.32"/>
    <polygon class="st19" points="91.95 207.23 92.43 207.32 91.88 206.14 90.65 206.04 90.98 206.75 91.66 206.63 91.95 207.23"/>
    <polygon class="st13" points="95.14 197.72 96.62 196.86 96.62 196.65 95.14 197.5 95.14 197.72"/>
    <path class="st28" d="M94.57,197.17c.5-.28.99-.57,1.48-.86.22-.07.43.19.57.33-.49.28-.98.57-1.48.85-.28-.42-.48-.37-.57-.33h0Z"/>
    <path class="st5" d="M95.14,197.72c-.13-.31-.4-.51-.57-.5v-.04c.2-.11.39.06.57.33v.22Z"/>
  </g>
  <g>
    <polygon class="st40" points="193.17 201.31 193.18 201.24 193.18 165.27 194.43 164.54 194.44 200.52 193.17 201.31"/>
    <polygon class="st18" points="174.85 154.71 174.81 154.67 193.21 165.3 194.47 164.57 176.06 153.95 174.85 154.71"/>
    <polygon class="st45" points="174.86 190.76 193.18 201.31 193.18 165.24 174.86 154.7 174.86 190.76"/>
    <polygon class="st4" points="187.99 179.67 190.74 181.26 190.74 180.09 187.99 178.51 187.99 179.67"/>
    <polygon class="st3" points="176.72 188.17 191.32 196.58 191.32 182.82 176.72 174.42 176.72 188.17"/>
    <polygon class="st32" points="191.32 195.87 191.32 182.82 177.17 174.68 177.17 187.72 191.32 195.87"/>
    <polygon class="st3" points="176.72 170.5 191.32 178.91 191.32 168.01 176.72 159.61 176.72 170.5"/>
    <polygon class="st27" points="191.32 178.22 191.32 168.01 177.16 159.86 177.16 170.06 191.32 178.22"/>
  </g>
  <g>
    <polygon class="st9" points="140.9 240.51 140.9 240.44 140.9 204.47 139.64 203.74 139.64 239.73 140.9 240.51"/>
    <polygon class="st26" points="159.22 193.91 159.26 193.87 140.87 204.5 139.61 203.77 158.01 193.14 159.22 193.91"/>
    <polygon class="st23" points="159.21 229.97 140.9 240.51 140.9 204.43 159.21 193.89 159.21 229.97"/>
    <polygon class="st4" points="146.09 218.87 143.33 220.46 143.33 219.29 146.09 217.7 146.09 218.87"/>
    <polygon class="st10" points="157.36 227.38 142.75 235.78 142.75 222.02 157.36 213.62 157.36 227.38"/>
    <polygon class="st16" points="142.75 235.07 142.75 222.02 156.91 213.88 156.91 226.92 142.75 235.07"/>
    <polygon class="st10" points="157.36 209.7 142.75 218.1 142.75 207.21 157.36 198.8 157.36 209.7"/>
    <polygon class="st16" points="142.75 217.41 142.75 207.21 156.92 199.06 156.92 209.26 142.75 217.41"/>
  </g>
</svg>